{"title":"Terminator Genisys 2015 1080p KORSUB HDTV x264 AAC-ShowS ","uid":12207439,"size":20083965446,"categoryP":"video","categoryS":"movies","magnet":"?xt=urn:btih:0d65040093350ed638faf02ca940fed2ebd41df6&amp;dn=Terminator+Genisys+2015+1080p+KORSUB+HDTV+x264+AAC-ShowS+&amp;tr=udp%3A%2F%2Ftracker.openbittorrent.com%3A80&amp;tr=udp%3A%2F%2Fopen.demonii.com%3A1337&amp;tr=udp%3A%2F%2Ftracker.coppersurfer.tk%3A6969&amp;tr=udp%3A%2F%2Fexodus.desync.com%3A6969","seeders":18,"leechers":8,"uploader":"makintos13","files":1,"time":1439014031,"description":"screens:\n &lt;a href=&quot;\nhttp://imgmak.com/lY&quot; rel=&quot;nofollow&quot; target=&quot;_NEW&quot;&gt;\nhttp://imgmak.com/lY&lt;/a&gt;\n &lt;a href=&quot;\nhttp://imgmak.com/l0&quot; rel=&quot;nofollow&quot; target=&quot;_NEW&quot;&gt;\nhttp://imgmak.com/l0&lt;/a&gt;\n &lt;a href=&quot;\nhttp://imgmak.com/lA&quot; rel=&quot;nofollow&quot; target=&quot;_NEW&quot;&gt;\nhttp://imgmak.com/lA&lt;/a&gt;\n &lt;a href=&quot;\nhttp://imgmak.com/lD&quot; rel=&quot;nofollow&quot; target=&quot;_NEW&quot;&gt;\nhttp://imgmak.com/lD&lt;/a&gt;\n &lt;a href=&quot;\nhttp://imgmak.com/lf&quot; rel=&quot;nofollow&quot; target=&quot;_NEW&quot;&gt;\nhttp://imgmak.com/lf&lt;/a&gt;\n\n:;;;;;;;;;\n\nGeneral\nComplete name : Terminator.Genisys.2015.1080p.KORSUB.HDTV.x264.AAC-ShowS.mp4\nFormat : MPEG-4\nFormat profile : Base Media / Version 2\nCodec ID : mp42\nFile size : 18.7 GiB\nDuration : 2h 0mn\nOverall bit rate : 22.2 Mbps\nEncoded date : UTC 2015-08-07 02:11:52\nTagged date : UTC 2015-08-07 02:11:52\n\nVideo\nID : 2\nFormat : AVC\nFormat/Info : Advanced Video Codec\nFormat profile : &lt;a class=&quot;__cf_email__&quot; href=&quot;/cdn-cgi/l/email-protection&quot; data-cfemail=&quot;0840616f6048443c2639&quot;&gt;[email&amp;#160;protected]&lt;/a&gt;&lt;script data-cfhash='f9e31' type=&quot;text/javascript&quot;&gt;\n/* &lt;![CDATA[ */!function(){try{var t=&quot;currentScript&quot;in document?document.currentScript:function(){for(var t=document.getElementsByTagName(&quot;script&quot;),e=t.length;e--;)if(t[e].getAttribute(&quot;data-cfhash&quot;))return t[e]}();if(t&amp;&amp;t.previousSibling){var e,r,n,i,c=t.previousSibling,a=c.getAttribute(&quot;data-cfemail&quot;);if(a){for(e=&quot;&quot;,r=parseInt(a.substr(0,2),16),n=2;a.length-n;n+=2)i=parseInt(a.substr(n,2),16)^r,e+=String.fromCharCode(i);e=document.createTextNode(e),c.parentNode.replaceChild(e,c)}t.parentNode.removeChild(t);}}catch(u){}}()/* ]]&gt; */&lt;/script&gt;\nFormat settings, CABAC : No\nFormat settings, ReFrames : 1 frame\nFormat settings, GOP : M=1, N=30\nCodec ID : avc1\nCodec ID/Info : Advanced Video Coding\nDuration : 2h 0mn\nSource duration : 2h 0mn\nBit rate : 22.1 Mbps\nWidth : 1 920 pixels\nHeight : 1 080 pixels\nDisplay aspect ratio : 16:9\nFrame rate mode : Constant\nFrame rate : 30.000 fps\nColor space : YUV\nChroma subsampling : 4:2:0\nBit depth : 8 bits\nScan type : Progressive\nBits/(Pixel*Frame) : 0.355\nStream size : 18.6 GiB (99%)\nSource stream size : 18.6 GiB (99%)\nLanguage : English\nEncoded date : UTC 2015-08-07 02:11:52\nTagged date : UTC 2015-08-07 02:11:52\nmdhd_Duration : 7224904\nColor primaries : BT.709\nTransfer characteristics : BT.709\nMatrix coefficients : BT.709\n\nAudio\nID : 1\nFormat : AAC\nFormat/Info : Advanced Audio Codec\nFormat profile : LC\nCodec ID : 40\nDuration : 2h 0mn\nSource duration : 2h 0mn\nBit rate mode : Constant\nBit rate : 128 Kbps\nChannel(s) : 2 channels\nChannel positions : Front: L R\nSampling rate : 48.0 KHz\nCompression mode : Lossy\nStream size : 110 MiB (1%)\nSource stream size : 110 MiB (1%)\nLanguage : English\nEncoded date : UTC 2015-08-07 02:11:52\nTagged date : UTC 2015-08-07 02:11:52\nmdhd_Duration : 7224906\n\nScreens","torrent":{"xt":"urn:btih:0d65040093350ed638faf02ca940fed2ebd41df6","amp;dn":"Terminator+Genisys+2015+1080p+KORSUB+HDTV+x264+AAC-ShowS+","amp;tr":["udp%3A%2F%2Ftracker.openbittorrent.com%3A80","udp%3A%2F%2Fopen.demonii.com%3A1337","udp%3A%2F%2Ftracker.coppersurfer.tk%3A6969","udp%3A%2F%2Fexodus.desync.com%3A6969"],"infoHash":"0d65040093350ed638faf02ca940fed2ebd41df6","infoHashBuffer":{"type":"Buffer","data":[13,101,4,0,147,53,14,214,56,250,240,44,169,64,254,210,235,212,29,246]},"announce":[],"urlList":[]}}